<svg xmlns="http://www.w3.org/2000/svg" data-name="Layer 1" width="512" height="512"><path d="M118.575 477h160a46.052 46.052 0 0046-46v-54h11.009a6 6 0 005.973-5.424l2-20.733a96.732 96.732 0 0024.667-10.38l15.918 13.182a6 6 0 008.069-.379l23.783-23.783a6 6 0 00.378-8.069l-13.213-15.954a98.684 98.684 0 0010.408-24.636l20.441-1.994a6 6 0 005.417-5.972v-33.717a6 6 0 00-5.425-5.972l-20.732-2a96.754 96.754 0 00-10.38-24.668l13.181-15.917a6 6 0 00-.351-8.042l-23.482-23.783a6 6 0 00-8.1-.406l-15.954 13.212a98.707 98.707 0 00-24.631-10.407l-2-20.736a6 6 0 00-5.967-5.422h-11.009V81a46.052 46.052 0 00-46-46h-160a46.053 46.053 0 00-46 46v350a46.053 46.053 0 0046 46zM332.02 166.562a6 6 0 004.705 5.289 86.862 86.862 0 0128.722 12.123 6 6 0 007.08-.421l15.032-12.453 15.806 16.009-12.493 15.091a6 6 0 00-.372 7.154A84.2 84.2 0 01402.573 238a6 6 0 005.289 4.7l19.563 1.886v22.825l-19.269 1.889a6 6 0 00-5.282 4.7 86.835 86.835 0 01-12.122 28.722 6 6 0 00.421 7.079l12.471 15.06-16.058 16.058-15.059-12.471a6 6 0 00-7.155-.371 84.235 84.235 0 01-28.647 12.073 6 6 0 00-4.7 5.289L330.135 365h-22.818l-1.886-19.562a6 6 0 00-4.7-5.289 86.862 86.862 0 01-28.722-12.123 6 6 0 00-7.08.421l-15.06 12.471-16.062-16.058 12.472-15.06a6 6 0 00.371-7.154A84.207 84.207 0 01234.577 274a6 6 0 00-5.289-4.7l-19.562-1.886v-22.823l19.562-1.886a6 6 0 005.289-4.7 86.851 86.851 0 0112.123-28.726 6 6 0 00-.42-7.079l-12.472-15.06 16.058-16.058 15.06 12.471a6 6 0 007.155.371 84.218 84.218 0 0128.647-12.073 6 6 0 004.7-5.289L307.317 147h22.818zM118.575 47h160a34.038 34.038 0 0134 34v14h-14a6 6 0 000 12h14v28h-10.708a6 6 0 00-5.972 5.424l-2 20.733a96.732 96.732 0 00-24.667 10.38l-15.917-13.182a6 6 0 00-8.07.379l-23.783 23.783a6 6 0 00-.378 8.069l13.212 15.954a98.757 98.757 0 00-10.408 24.63l-20.735 2a6 6 0 00-5.424 5.972v33.717a6 6 0 005.424 5.973l20.732 2a96.792 96.792 0 0010.382 24.668l-13.182 15.917a6 6 0 00.378 8.069l23.783 23.783a6 6 0 008.07.379l15.954-13.212A98.685 98.685 0 00293.9 350.84l2 20.736a6 6 0 005.967 5.424h10.708v16h-228V107h163a6 6 0 000-12h-163V81a34.039 34.039 0 0134-34zm-34 358h228v26a34.038 34.038 0 01-34 34h-160a34.039 34.039 0 01-34-34z"/><path d="M267.27 107h11.115a6 6 0 000-12H267.27a6 6 0 000 12zm-68.695 349a21 21 0 10-21-21 21.023 21.023 0 0021 21zm0-30a9 9 0 11-9 9 9.01 9.01 0 019-9zm48.505-170a71.646 71.646 0 1071.646-71.646A71.727 71.727 0 00247.08 256zm71.646-59.646A59.646 59.646 0 11259.08 256a59.713 59.713 0 0159.646-59.646z"/><path d="M306.6 277.371a6 6 0 008.383 0l34.984-34.156a6 6 0 10-8.383-8.586l-30.793 30.063-15.227-14.866a6 6 0 00-8.382 8.587zM179 237h-8.29a6 6 0 000 12H179a6 6 0 000-12zm-71 12h36.177a6 6 0 100-12H108a6 6 0 000 12zm71 38h-38.29a6 6 0 000 12H179a6 6 0 000-12zm-71 12h6.177a6 6 0 100-12H108a6 6 0 000 12zm67 44a6 6 0 006 6h28a6 6 0 000-12h-28a6 6 0 00-6 6zm-20.823-6H108a6 6 0 000 12h46.177a6 6 0 100-12zM151 195h38a6 6 0 000-12h-38a6 6 0 000 12zm-43 0h16.177a6 6 0 000-12H108a6 6 0 000 12z"/></svg>