<svg height="512" width="512" xmlns="http://www.w3.org/2000/svg"><path d="M511.271 252.773C466.858 159.603 366.659 99.4 256 99.4S45.142 159.603.73 252.773a7.502 7.502 0 000 6.455C45.142 352.398 145.341 412.6 256 412.6c41.525 0 81.477-8.194 118.742-24.356a7.5 7.5 0 00-5.968-13.762C333.402 389.821 295.46 397.6 256 397.6c-103.621 0-197.462-55.458-240.161-141.6C58.538 169.858 152.379 114.4 256 114.4S453.462 169.858 496.161 256c-21.266 42.908-55.489 78.899-99.173 104.246a7.5 7.5 0 007.527 12.975c47.401-27.504 84.316-66.922 106.755-113.993a7.506 7.506 0 00.001-6.455z"/><path d="M163.82 185.228a7.5 7.5 0 00-10.407 2.048c-13.66 20.355-20.88 44.118-20.88 68.725 0 68.08 55.387 123.467 123.467 123.467S379.467 324.08 379.467 256 324.08 132.533 256 132.533c-30.233 0-59.325 11.04-81.916 31.088a7.498 7.498 0 00-.632 10.587 7.496 7.496 0 0010.587.632A108.317 108.317 0 01256 147.533c59.809 0 108.467 48.658 108.467 108.467S315.809 364.467 256 364.467 147.533 315.809 147.533 256c0-21.618 6.34-42.492 18.335-60.365a7.499 7.499 0 00-2.048-10.407z"/><path d="M289.134 198.8a23.92 23.92 0 00-12.841 3.727A56.724 56.724 0 00256 198.8c-31.54 0-57.2 25.66-57.2 57.2s25.66 57.2 57.2 57.2 57.2-25.66 57.2-57.2a56.716 56.716 0 00-3.727-20.293 23.91 23.91 0 003.727-12.841c0-13.27-10.796-24.066-24.066-24.066zm9.066 24.066c0 5-4.067 9.067-9.066 9.067-5 0-9.067-4.067-9.067-9.067 0-4.999 4.067-9.066 9.067-9.066 4.999 0 9.066 4.067 9.066 9.066zM256 298.2c-23.27 0-42.2-18.931-42.2-42.2s18.931-42.2 42.2-42.2c3.543 0 7.004.443 10.362 1.292a23.946 23.946 0 00-1.296 7.775c0 13.27 10.797 24.067 24.067 24.067 2.721 0 5.334-.46 7.775-1.296a42.213 42.213 0 011.292 10.363c0 23.269-18.93 42.199-42.2 42.199z"/></svg>