<svg xmlns="http://www.w3.org/2000/svg" width="512" height="512"><path d="M334.58 299.45l-72-104a8 8 0 00-13.16 0l-72 104a7.99 7.99 0 00-1.01 7.08L196.9 368H192a8 8 0 00-8 8v24a8 8 0 008 8h8v88a8 8 0 008 8h96a8 8 0 008-8v-88h8a8 8 0 008-8v-24a8 8 0 00-8-8h-4.9l20.49-61.47a7.99 7.99 0 00-1.01-7.08zM256 288a8 8 0 11-8 8 8.011 8.011 0 018-8zm40 200h-80v-80h80zm16-96H200v-8h112zm-13.77-24h-84.46l-20.92-62.73L248 225.61V272a8.451 8.451 0 00.12 1.34 24 24 0 1015.76 0A8.451 8.451 0 00264 272v-46.39l55.15 79.66z"/><path d="M496 96h-32a8 8 0 00-8 8v8.07a8.258 8.258 0 00-1-.07H280v-8a8 8 0 00-8-8h-8V56h8a8 8 0 008-8V16a8 8 0 00-8-8h-32a8 8 0 00-8 8v32a8 8 0 008 8h8v40h-8a8 8 0 00-8 8v8H56v-8a8 8 0 00-8-8H16a8 8 0 00-8 8v32a8 8 0 008 8h32a8 8 0 008-8v-8h132.26a125.138 125.138 0 00-27.99 25.35C139.76 178.22 128 209.8 128 240h-8a8 8 0 00-8 8v32a8 8 0 008 8h32a8 8 0 008-8v-32a8 8 0 00-8-8h-8c0-59.32 45.64-106.11 88-111.48V136a8 8 0 008 8h32a8 8 0 008-8v-7.51c21.66 2.57 42.45 15.55 59.23 37.2 16.33 21.05 26.7 48.31 28.49 74.31H360a8 8 0 00-8 8v32a8 8 0 008 8h32a8 8 0 008-8v-32a8 8 0 00-8-8h-8.25c-1.75-29.71-13.14-59.97-31.87-84.12a126.392 126.392 0 00-29.4-27.88H455a8.258 8.258 0 001-.07V136a8 8 0 008 8h32a8 8 0 008-8v-32a8 8 0 00-8-8zM40 128H24v-16h16zm104 144h-16v-16h16zM248 24h16v16h-16zm16 104h-16v-16h16zm104 128h16v16h-16zm120-128h-16v-16h16z"/></svg>