<svg height="496pt" viewBox="0 0 496 496" width="496pt" xmlns="http://www.w3.org/2000/svg"><path d="M48 448h16v16H48zm32 0h16v16H80zm32 0h16v16h-16zm272 0h64v16h-64zm0 0"/><path d="M480 416V152c0-22.055-17.945-40-40-40h-24C416 50.238 365.762 0 304 0S192 50.238 192 112H56c-22.055 0-40 17.945-40 40v264H0v40c0 22.055 17.945 40 40 40h416c22.055 0 40-17.945 40-40v-40zm-40-288c13.23 0 24 10.77 24 24v264h-16V160c0-8.824-7.176-16-16-16h-20.719c1.543-5.184 2.656-10.535 3.438-16zM212.648 82.602l84.91 35.382 29.075 87.207C319.359 206.961 311.809 208 304 208c-52.938 0-96-43.063-96-96a95.522 95.522 0 014.648-29.398zm129.184 117.597l-28.68-86.039 64.078-64.082C391.406 66.808 400 88.406 400 112c0 39.504-24 73.488-58.168 88.2zM304 16c23.594 0 45.191 8.594 61.93 22.762l-63.793 63.789-83.29-34.696C234.856 37.09 266.985 16 304 16zM32 152c0-13.23 10.77-24 24-24h137.281c.781 5.465 1.887 10.816 3.438 16H64c-8.824 0-16 7.176-16 16v256H32zm448 304c0 13.23-10.77 24-24 24H40c-13.23 0-24-10.77-24-24v-24h164.816c11.504 10.344 26.223 16 41.817 16h50.742c15.594 0 30.313-5.656 41.816-16H416v-16H308.687l-2.343 2.344C297.535 427.152 285.832 432 273.367 432h-50.742c-12.457 0-24.168-4.848-32.977-13.656L187.313 416H64V160h138.96c18.024 37.777 56.474 64 101.04 64s83.016-26.223 101.04-64H432v272h48zm0 0"/><path d="M392 336c-4.91 0-9.48 1.496-13.29 4.04l-27.91-20.927c.712-2.265 1.2-4.625 1.2-7.113 0-13.23-10.77-24-24-24s-24 10.77-24 24c0 2.754.559 5.36 1.414 7.824l-44.805 35.848C256.938 353.382 252.641 352 248 352c-5.383 0-10.305 1.848-14.313 4.848l-34.496-23c.48-1.88.809-3.817.809-5.848 0-13.23-10.77-24-24-24s-24 10.77-24 24c0 2.031.328 3.969.809 5.848l-34.496 23C114.305 353.84 109.382 352 104 352c-13.23 0-24 10.77-24 24s10.77 24 24 24 24-10.77 24-24c0-2.031-.328-3.969-.809-5.848l34.496-23C165.696 350.16 170.618 352 176 352s10.305-1.84 14.313-4.848l34.496 23c-.48 1.88-.809 3.825-.809 5.848 0 13.23 10.77 24 24 24s24-10.77 24-24c0-2.754-.559-5.36-1.414-7.824l44.805-35.848c3.671 2.29 7.968 3.672 12.609 3.672 4.91 0 9.48-1.496 13.29-4.04l27.91 20.927c-.712 2.265-1.2 4.625-1.2 7.113 0 13.23 10.77 24 24 24s24-10.77 24-24-10.77-24-24-24zm-288 48c-4.406 0-8-3.594-8-8s3.594-8 8-8 8 3.594 8 8-3.594 8-8 8zm72-48c-4.406 0-8-3.594-8-8s3.594-8 8-8 8 3.594 8 8-3.594 8-8 8zm72 48c-4.406 0-8-3.594-8-8s3.594-8 8-8 8 3.594 8 8-3.594 8-8 8zm80-64c-4.406 0-8-3.594-8-8s3.594-8 8-8 8 3.594 8 8-3.594 8-8 8zm64 48c-4.406 0-8-3.594-8-8s3.594-8 8-8 8 3.594 8 8-3.594 8-8 8zM208 176H80v112h128zm-16 96H96v-80h96zm0 0"/><path d="M112 208h64v16h-64zm0 32h64v16h-64zm112 16h16v16h-16zm32 0h160v16H256zm0 0"/></svg>