<svg height="512" viewBox="0 0 64 64" width="512" xmlns="http://www.w3.org/2000/svg"><path d="M18.445 14.832l3 2a1 1 0 101.11-1.664L20.8 14l1.752-1.168a1 1 0 00-1.11-1.664l-3 2a1 1 0 000 1.664zm10.723 1.723a1 1 0 001.387.277l3-2a1 1 0 000-1.664l-3-2a1 1 0 00-1.11 1.664L31.2 14l-1.752 1.168a1 1 0 00-.28 1.387zm-4.484 1.394a1 1 0 001.264-.633l2-6a1 1 0 10-1.9-.632l-2 6a1 1 0 00.636 1.265zM19 19h6v2h-6zm8 0h2v2h-2zm-4 3h12v2H23zm18 0h9v2h-9zm-18 3h2v2h-2zm4 0h12v2H27zm14 0h4v2h-4zm-11 3h6v2h-6zm8 0h2v2h-2zm-1-6h2v2h-2z"/><path d="M61 48H43.816A2.966 2.966 0 0044 47a3 3 0 00-3-3h-3.279l-1.334-4H51a5.006 5.006 0 005-5V7a5.006 5.006 0 00-5-5H13a5.006 5.006 0 00-5 5v21H3a1 1 0 00-1 1v32a1 1 0 001 1h24a1 1 0 001-1V50h2v11a1 1 0 001 1h30a1 1 0 001-1V49a1 1 0 00-1-1zm-25.388-4H28v-4h6.279zM51 38H28v-4h26v1a3 3 0 01-3 3zM13 4h38a3 3 0 012.816 2H10.184A3 3 0 0113 4zm-3 4h44v24H28v-3a1 1 0 00-1-1H16V12a1 1 0 00-2 0v16h-4zm16 52H4V30h22zm2-14h13a1 1 0 010 2H28zm32 14H32V50h28z"/><path d="M36 51h2v2h-2zm3 0h2v2h-2zm3 0h2v2h-2zm3 0h2v2h-2zm3 0h2v2h-2zm3 0h2v2h-2zm3 0h2v2h-2zm-18 3h2v2h-2zm3 0h2v2h-2zm3 0h2v2h-2zm3 0h2v2h-2zm3 0h2v2h-2zm3 0h2v2h-2zm3 0h2v2h-2zm-18 3h2v2h-2zm3 0h14v2H39zm15 0h2v2h-2zm3-6h2v2h-2zm0 3h2v2h-2zm0 3h2v2h-2zm-24-6h2v2h-2zm0 3h2v2h-2zm0 3h2v2h-2zM17.5 36a2.5 2.5 0 000-5h-5a2.5 2.5 0 000 5H14v2.382L10.553 40.1a1 1 0 000 1.79L14 43.618V46h-3a1 1 0 00-1 1v4a1 1 0 001 1h3v2h-1.5a2.5 2.5 0 000 5h5a2.5 2.5 0 000-5H16v-2h3a1 1 0 001-1v-4a1 1 0 00-1-1h-3v-2.382l3.447-1.718a1 1 0 000-1.79L16 38.382V36zm.5 20.5a.5.5 0 01-.5.5h-5a.5.5 0 010-1h5a.5.5 0 01.5.5zm0-8.5v2h-6v-2zm-3-6.118L13.236 41 15 40.118l1.764.882zM12 33.5a.5.5 0 01.5-.5h5a.5.5 0 010 1h-5a.5.5 0 01-.5-.5z"/></svg>