<svg xmlns="http://www.w3.org/2000/svg" viewBox="0 0 512 512"><path d="M511.604 148.415v-115.4C511.604 14.811 496.6 0 478.158 0H33.445C15.003 0 0 14.811 0 33.015v377.11c0 18.441 15.003 33.445 33.445 33.445h219.942v24.182c0 24.398 19.85 44.248 44.248 44.248h170.116C492.15 512 512 492.15 512 467.752V154.248a44.56 44.56 0 00-.396-5.833zM20 33.015C20 25.717 25.906 20 33.445 20h444.713c7.539 0 13.445 5.717 13.445 13.015v83.994a43.952 43.952 0 00-19.013-6.739l-.01-.001c-.316-.034-.634-.061-.952-.089a.211.211 0 00-.026-.002V49.57c0-5.522-4.478-10-10-10H50c-5.523 0-10 4.478-10 10v298.162H20V33.015zm233.388 352.519h-99.915c-5.523 0-10 4.478-10 10s4.477 10 10 10h99.915v18.036H33.445c-7.413 0-13.445-6.031-13.445-13.445v-42.393h233.388v17.802zm0-73.927H110.811v-41.041h142.577v41.041zm6.425-180.301l-.015.024a44.015 44.015 0 00-.949 1.649c-.09.164-.178.33-.266.495-.228.427-.449.859-.664 1.294-.078.158-.157.315-.233.474a44.112 44.112 0 00-.789 1.742c-.041.096-.078.194-.118.291a43.505 43.505 0 00-.6 1.518c-.069.184-.136.37-.203.555-.171.476-.333.956-.488 1.44-.046.145-.096.288-.141.433-.19.616-.367 1.237-.53 1.864-.039.148-.072.297-.109.445-.124.497-.24.998-.347 1.502-.041.194-.082.388-.12.582a45.155 45.155 0 00-.297 1.657c-.017.104-.037.206-.052.31a44.01 44.01 0 00-.251 1.971c-.019.178-.033.358-.05.537a43.105 43.105 0 00-.117 1.535c-.011.195-.024.389-.033.585a44.541 44.541 0 00-.052 2.04v63.364H110.811V130h149.828c-.283.43-.558.865-.826 1.306zM100.811 110c-5.523 0-10 4.478-10 10v107.612c0 5.522 4.477 10 10 10h152.577v12.954H100.811c-5.523 0-10 4.478-10 10v61.041c0 5.522 4.477 10 10 10h152.577v16.125H60V59.57h391.604V110H100.811zM492 467.752c0 13.37-10.878 24.248-24.248 24.248H297.636c-13.37 0-24.248-10.878-24.248-24.248v-16.091H492v16.091zm0-36.091H273.388V190.339H492v241.322zm.002-261.323H273.388v-16.091c0-13.37 10.878-24.248 24.248-24.248h170.116c.71 0 1.414.036 2.111.098.046.004.093.006.14.011 8.685.823 16.248 6.347 19.813 14.103l.079.174c.261.579.498 1.172.713 1.774.04.113.077.228.116.341.197.58.376 1.167.529 1.766.03.117.054.236.082.353.14.586.262 1.178.358 1.78.201 1.254.309 2.538.309 3.848v16.091z"/><path d="M433.579 148.219a10.367 10.367 0 00-.569-1.879c-.25-.6-.56-1.18-.92-1.72a9.533 9.533 0 00-1.24-1.521 9.57 9.57 0 00-1.52-1.24 10.31 10.31 0 00-1.73-.92 10.18 10.18 0 00-1.87-.58 9.898 9.898 0 00-3.91 0c-.63.131-1.26.33-1.869.58a10.188 10.188 0 00-3.241 2.16 10.033 10.033 0 00-2.741 9.02 10.098 10.098 0 001.49 3.599c.37.55.79 1.061 1.25 1.521.46.46.97.88 1.52 1.239.54.36 1.12.67 1.721.92.609.25 1.239.45 1.869.57.65.13 1.311.2 1.961.2.649 0 1.31-.07 1.949-.2a9.352 9.352 0 001.87-.57 10.2 10.2 0 001.73-.92 9.51 9.51 0 001.52-1.239c.46-.46.88-.971 1.24-1.521a10.122 10.122 0 001.49-3.599c.13-.641.189-1.301.189-1.95 0-.65-.06-1.311-.189-1.95zm-47.803-8.049H341.61c-5.522 0-10 4.478-10 10s4.478 10 10 10h44.166c5.522 0 10-4.478 10-10s-4.477-10-10-10zm10.095 321.66h-26.354c-5.522 0-10 4.478-10 10s4.477 10 10 10h26.354c5.522 0 10-4.478 10-10s-4.478-10-10-10zM145.848 173.614l10.429-10.429c3.905-3.905 3.905-10.237 0-14.143-3.905-3.904-10.237-3.904-14.143 0l-17.5 17.5c-3.905 3.905-3.905 10.237 0 14.143l17.501 17.501c1.953 1.952 4.512 2.929 7.071 2.929s5.119-.977 7.071-2.929c3.905-3.905 3.905-10.237 0-14.143l-10.429-10.429zM187.44 78.5c-.13-.641-.32-1.271-.57-1.87a9.87 9.87 0 00-.92-1.73c-.37-.55-.78-1.06-1.24-1.52-.46-.46-.98-.88-1.52-1.24-.55-.359-1.13-.67-1.73-.92-.6-.25-1.23-.439-1.87-.57a9.898 9.898 0 00-3.91 0c-.64.131-1.27.32-1.87.57s-1.18.561-1.73.92c-.54.36-1.06.78-1.52 1.24s-.87.97-1.24 1.52a9.87 9.87 0 00-.92 1.73c-.25.6-.44 1.229-.57 1.87-.13.64-.2 1.3-.2 1.95 0 .649.07 1.31.2 1.949.13.641.32 1.271.57 1.881a10.146 10.146 0 002.16 3.24c.46.46.98.88 1.52 1.25.55.36 1.13.67 1.73.92.6.24 1.23.44 1.87.561.65.13 1.3.2 1.96.2.65 0 1.3-.07 1.95-.2.64-.12 1.27-.32 1.87-.561.6-.25 1.18-.56 1.73-.92.54-.37 1.06-.79 1.52-1.25a10.153 10.153 0 002.16-3.24c.25-.61.44-1.24.57-1.881.13-.64.19-1.3.19-1.949 0-.65-.06-1.311-.19-1.95zm146.529-8.049H215.636c-5.523 0-10 4.478-10 10s4.477 10 10 10h118.333c5.522 0 10-4.478 10-10s-4.478-10-10-10zm128.716 134.554H302.703c-5.522 0-10 4.478-10 10v97.996c0 5.522 4.478 10 10 10h159.981c5.522 0 10-4.478 10-10v-97.996c.001-5.523-4.477-10-9.999-10zm-149.982 97.996v-77.996h139.981v77.996H312.703zm149.982 37.954H302.703c-5.522 0-10 4.478-10 10v61.04c0 5.522 4.478 10 10 10h159.981c5.522 0 10-4.478 10-10v-61.04c.001-5.522-4.477-10-9.999-10zm-149.982 61.04v-41.04h139.981v41.04H312.703z"/><path d="M439.071 256.931l-17.5-17.5c-3.906-3.904-10.236-3.904-14.143 0-3.905 3.905-3.905 10.237 0 14.143l10.429 10.429-10.429 10.429c-3.905 3.905-3.905 10.237.001 14.142 1.953 1.952 4.512 2.929 7.071 2.929s5.118-.977 7.071-2.929l17.5-17.5c3.905-3.905 3.905-10.237 0-14.143zm-91.331 7.071l10.429-10.429c3.905-3.905 3.905-10.237 0-14.143-3.906-3.904-10.236-3.904-14.143 0l-17.5 17.5c-3.905 3.905-3.905 10.237 0 14.143l17.501 17.501c1.953 1.952 4.512 2.929 7.071 2.929s5.118-.977 7.071-2.929c3.905-3.905 3.905-10.237 0-14.143l-10.429-10.429z"/></svg>