<svg xmlns="http://www.w3.org/2000/svg" width="16.09" height="19.938"><path data-name="Apple Icon" d="M13.43 10.601a4.524 4.524 0 012.14-3.8 4.59 4.59 0 00-3.62-1.975c-1.53-.162-3 .919-3.78.919s-1.99-.9-3.27-.877a4.816 4.816 0 00-4.06 2.5c-1.75 3.065-.45 7.571 1.23 10.049.85 1.214 1.83 2.569 3.11 2.521 1.26-.052 1.73-.81 3.25-.81 1.5 0 1.95.81 3.26.779 1.35-.022 2.2-1.219 3.01-2.443a10.312 10.312 0 001.38-2.832 4.351 4.351 0 01-2.65-4.031zm-2.48-7.407A4.462 4.462 0 0011.96 0a4.5 4.5 0 00-2.91 1.518 4.307 4.307 0 00-1.04 3.078 3.7 3.7 0 002.94-1.402z" fill="#fff" fill-rule="evenodd"/></svg>