<svg id="Lock_Icon" data-name="Lock Icon" xmlns="http://www.w3.org/2000/svg" width="45" height="54"><defs><style>.cls-1{fill:none;stroke:#267df4;stroke-width:3px}</style></defs><rect id="Shape" class="cls-1" x="1.5" y="21.5" width="42" height="31" rx="4" ry="4"/><path id="Shape-2" data-name="Shape" class="cls-1" d="M21.5 1.5h2a15 15 0 0115 15v8h-32v-8a15 15 0 0115-15z"/><path id="Shape-3" data-name="Shape" class="cls-1" d="M22.5 6.5a11 11 0 0111 11v7h-22v-7a11 11 0 0111-11z"/><path id="Shape-4" data-name="Shape" d="M15.075 34.85a1.511 1.511 0 012.122 0l4.949 4.95a1.5 1.5 0 11-2.121 2.12l-4.95-4.95a1.5 1.5 0 010-2.12zm4.95 4.95l7.778-7.77a1.5 1.5 0 012.122 2.12l-7.779 7.77a1.5 1.5 0 11-2.121-2.12z" fill-rule="evenodd" fill="none" stroke="#267df4" stroke-width="3"/></svg>