<svg xmlns="http://www.w3.org/2000/svg" width="139.282" height="11.906"><path d="M10.303 11.613V.285H7.644l.064 7.392H7.66L3.116.285h-3.12v11.328h2.656l-.064-7.408h.056l4.56 7.408h3.1zm10.24 0V9.278h-5.264V6.926h4.7V4.734h-4.7V2.59h4.976V.29h-7.611v11.323h7.9zM37.583.285h-2.848l-1.824 7.536h-.048L30.831.285h-2.848l-2.016 7.536h-.048L24.127.285h-2.944l3.216 11.328h2.72l2.24-7.664h.048l2.24 7.664h2.7zm1.376 11.328h1.585V6.637h1.792a6.973 6.973 0 001.64-.184 3.868 3.868 0 001.312-.568 2.673 2.673 0 00.864-.992 3.152 3.152 0 00.312-1.456 3.228 3.228 0 00-.288-1.424 2.589 2.589 0 00-.816-.976 3.61 3.61 0 00-1.28-.568 7.015 7.015 0 00-1.664-.184H38.96v11.328zm1.584-9.984h1.712a5.772 5.772 0 011.04.088 2.327 2.327 0 01.824.3 1.611 1.611 0 01.544.56 1.684 1.684 0 01.2.856 1.782 1.782 0 01-.192.864 1.5 1.5 0 01-.544.568 2.646 2.646 0 01-.84.32 5.086 5.086 0 01-1.064.1h-1.679V1.63zm9.519 4.944h1.7l2.88 5.04h1.92l-3.168-5.2a3.571 3.571 0 001.984-.976 2.727 2.727 0 00.768-2.016 3.07 3.07 0 00-.32-1.464 2.632 2.632 0 00-.872-.968 3.849 3.849 0 00-1.288-.536 6.952 6.952 0 00-1.552-.168h-3.632v11.328h1.584V6.574zm0-4.944h1.936a5.22 5.22 0 01.976.088 2.406 2.406 0 01.808.3 1.594 1.594 0 01.552.552 1.644 1.644 0 01-.568 2.272 2.632 2.632 0 01-.84.312 5.315 5.315 0 01-1.04.1h-1.824V1.63zm19.208 1.88a5.527 5.527 0 00-1.256-1.872 5.659 5.659 0 00-1.9-1.208 6.863 6.863 0 00-4.792 0 5.693 5.693 0 00-1.9 1.208 5.451 5.451 0 00-1.248 1.872 6.739 6.739 0 000 4.832 5.55 5.55 0 003.144 3.12 6.742 6.742 0 004.792 0 5.63 5.63 0 001.9-1.232 5.7 5.7 0 001.256-1.888 6.629 6.629 0 00.004-4.832zm-1.56 4.2a4.316 4.316 0 01-.864 1.448 3.971 3.971 0 01-1.36.968 4.363 4.363 0 01-1.776.352 4.257 4.257 0 01-1.76-.352 4.034 4.034 0 01-1.344-.968 4.349 4.349 0 01-.864-1.448 5.154 5.154 0 01-.3-1.777 5.038 5.038 0 01.3-1.752 4.535 4.535 0 01.856-1.448 3.955 3.955 0 011.344-.983 4.557 4.557 0 013.552 0 4.036 4.036 0 011.352.983 4.429 4.429 0 01.864 1.448 5.015 5.015 0 01.3 1.752 5.13 5.13 0 01-.3 1.778zM72.046.284h-1.76l4.416 11.328h1.472L80.622.284H78.91l-3.408 9.28h-.048zm11.5 0h-1.584v11.329h1.584V.285zm2.752 11.328h3.888a7.173 7.173 0 002.176-.344 6.106 6.106 0 001.968-1.04 5.247 5.247 0 001.424-1.76 5.464 5.464 0 00.544-2.52 5.634 5.634 0 00-.544-2.577 5.153 5.153 0 00-1.424-1.76A5.832 5.832 0 0092.362.603a7.671 7.671 0 00-2.176-.32h-3.888v11.33zm1.584-9.952h1.984a6.164 6.164 0 011.9.28 4.334 4.334 0 011.5.816 3.631 3.631 0 01.984 1.336 4.566 4.566 0 01.352 1.856 4.439 4.439 0 01-.352 1.808 3.7 3.7 0 01-.984 1.344 4.364 4.364 0 01-1.5.832 6 6 0 01-1.9.288h-1.984V1.66zm12.176 4.769h5.344v-1.36h-5.344V1.678h5.68V.285h-7.264v11.328h7.5v-1.408h-5.92V6.43zm10.1-6.145h-2.064v11.329h1.584V2.365h.032l5.984 9.248h2V.285h-1.584v9.059h-.032zm18.736 8.7a3.361 3.361 0 01-1.3 1.12 3.906 3.906 0 01-1.744.385 4.3 4.3 0 01-1.768-.353 3.905 3.905 0 01-1.344-.968 4.3 4.3 0 01-.848-1.448 5.292 5.292 0 01-.3-1.792 5.015 5.015 0 01.3-1.752 4.429 4.429 0 01.864-1.448 4.036 4.036 0 011.352-.983 4.261 4.261 0 011.784-.36 3.652 3.652 0 011.64.376 3.122 3.122 0 011.176.952l1.248-.961a3.61 3.61 0 00-.768-.76 4.732 4.732 0 00-.992-.552 5.831 5.831 0 00-1.136-.336 6.307 6.307 0 00-1.168-.112 6.525 6.525 0 00-2.4.432 5.744 5.744 0 00-1.912 1.208 5.475 5.475 0 00-1.264 1.872 6.684 6.684 0 00-.008 4.832 5.66 5.66 0 001.24 1.888 5.561 5.561 0 001.888 1.232 6.353 6.353 0 002.392.44 5.445 5.445 0 002.576-.568 5.093 5.093 0 001.744-1.48zm4.464-2.56h5.344v-1.36h-5.344V1.678h5.68V.285h-7.264v11.328h7.5v-1.408h-5.92V6.43z" fill="#26272d" fill-rule="evenodd"/></svg>